<svg width="1200" height="600" viewBox="0 0 1200 600" xmlns="http://www.w3.org/2000/svg">
  <defs>
    <linearGradient id="bg" x1="0" y1="0" x2="1" y2="1">
      <stop offset="0" stop-color="#042f2e"/>
      <stop offset="0.55" stop-color="#115e59"/>
      <stop offset="1" stop-color="#0e7490"/>
    </linearGradient>
    <radialGradient id="glowAmber" cx="0.5" cy="0.5" r="0.5">
      <stop offset="0" stop-color="#fbbf24" stop-opacity="0.35"/>
      <stop offset="1" stop-color="#fbbf24" stop-opacity="0"/>
    </radialGradient>
    <radialGradient id="glowWhite" cx="0.5" cy="0.5" r="0.5">
      <stop offset="0" stop-color="#ffffff" stop-opacity="0.14"/>
      <stop offset="1" stop-color="#ffffff" stop-opacity="0"/>
    </radialGradient>
    <pattern id="star" width="76" height="76" patternUnits="userSpaceOnUse">
      <path d="M38 0 L44.5 31.5 L76 38 L44.5 44.5 L38 76 L31.5 44.5 L0 38 L31.5 31.5 Z" fill="none" stroke="#ffffff" stroke-opacity="0.07" stroke-width="1"/>
    </pattern>
  </defs>
  <rect width="1200" height="600" fill="url(#bg)"/>
  <rect width="1200" height="600" fill="url(#star)"/>
  <circle cx="1010" cy="100" r="240" fill="url(#glowAmber)"/>
  <circle cx="160" cy="540" r="220" fill="url(#glowWhite)"/>

  <g fill="#ffffff" opacity="0.05">
    <rect x="150" y="330" width="34" height="210" rx="6"/>
    <rect x="146" y="320" width="42" height="12" rx="3"/>
    <rect x="270" y="330" width="34" height="210" rx="6"/>
    <rect x="266" y="320" width="42" height="12" rx="3"/>
    <rect x="390" y="330" width="34" height="210" rx="6"/>
    <rect x="386" y="320" width="42" height="12" rx="3"/>
    <rect x="776" y="330" width="34" height="210" rx="6"/>
    <rect x="772" y="320" width="42" height="12" rx="3"/>
    <rect x="896" y="330" width="34" height="210" rx="6"/>
    <rect x="892" y="320" width="42" height="12" rx="3"/>
    <rect x="1016" y="330" width="34" height="210" rx="6"/>
    <rect x="1012" y="320" width="42" height="12" rx="3"/>
  </g>

  <path d="M600 130 L770 235 L600 340 L430 235 Z" fill="#fbbf24"/>
  <path d="M482 245 L718 245 L700 322 Q600 352 500 322 Z" fill="#065f46"/>
  <circle cx="600" cy="130" r="10" fill="#d97706"/>
  <path d="M770 235 Q850 255 900 315" fill="none" stroke="#fcd34d" stroke-width="5" stroke-linecap="round"/>
  <path d="M900 315 L890 329 L910 329 Z" fill="#fcd34d"/>

  <g fill="#ffffff" opacity="0.5">
    <path d="M250 180 L257 164 L264 180 L257 196 Z"/>
    <path d="M330 300 L337 284 L344 300 L337 316 Z"/>
    <path d="M880 130 L886 116 L892 130 L886 144 Z"/>
    <path d="M980 330 L985 320 L990 330 L985 340 Z"/>
  </g>

  <text x="600" y="548" text-anchor="middle" font-size="120" font-family="serif" fill="#ffffff" fill-opacity="0.12">مدرسة</text>
</svg>
